<?xml version="1.0" standalone="no"?>
<!DOCTYPE svg PUBLIC "-//W3C//DTD SVG 20010904//EN"
 "http://www.w3.org/TR/2001/REC-SVG-20010904/DTD/svg10.dtd">
<svg version="1.0" xmlns="http://www.w3.org/2000/svg"
 width="53.000000pt" height="47.000000pt" viewBox="0 0 53.000000 47.000000"
 preserveAspectRatio="xMidYMid meet">
<metadata>
Created by potrace 1.16, written by Peter Selinger 2001-2019
</metadata>
<g transform="translate(0.000000,47.000000) scale(0.100000,-0.100000)"
fill="#000000" stroke="none">
<path d="M105 463 c-35 -9 -66 -36 -86 -74 -41 -82 -24 -120 126 -269 l115
-115 116 115 c134 133 148 156 141 218 -13 115 -132 166 -225 95 l-33 -25 -22
20 c-38 35 -83 47 -132 35z m115 -43 l32 -23 -88 -88 c-94 -95 -99 -96 -130
-38 -29 57 -8 124 49 160 40 25 93 20 137 -11z m247 -14 c27 -29 33 -44 33
-79 0 -60 -34 -105 -173 -229 l-68 -61 -85 84 -84 84 102 103 c128 129 150
145 203 138 29 -3 49 -14 72 -40z"/>
</g>
</svg>
