<?xml version="1.0" standalone="no"?>
<!DOCTYPE svg PUBLIC "-//W3C//DTD SVG 20010904//EN"
 "http://www.w3.org/TR/2001/REC-SVG-20010904/DTD/svg10.dtd">
<svg version="1.0" xmlns="http://www.w3.org/2000/svg"
 width="54.000000pt" height="54.000000pt" viewBox="0 0 54.000000 54.000000"
 preserveAspectRatio="xMidYMid meet">
<metadata>
Created by potrace 1.16, written by Peter Selinger 2001-2019
</metadata>
<g transform="translate(0.000000,54.000000) scale(0.100000,-0.100000)"
fill="#000000" stroke="none">
<path d="M145 530 c-22 -6 -61 -20 -87 -32 -39 -17 -46 -24 -36 -35 9 -11 7
-26 -7 -65 -29 -81 -4 -243 39 -253 12 -3 44 -9 71 -15 73 -15 233 -69 287
-96 26 -13 53 -24 61 -24 17 0 54 66 59 104 3 28 0 29 -132 81 -145 58 -175
77 -186 120 -11 44 25 68 91 61 127 -14 215 -18 215 -9 0 20 -104 113 -153
138 -60 29 -158 40 -222 25z m222 -45 c28 -15 68 -45 89 -67 l39 -39 -115 7
c-127 7 -118 7 -143 5 -25 -1 -50 -63 -38 -93 15 -39 43 -56 177 -109 71 -27
133 -54 137 -58 11 -11 0 -51 -22 -80 l-18 -24 -89 36 c-102 41 -194 70 -276
86 -50 11 -58 16 -68 44 -22 61 -24 163 -6 212 10 24 15 49 11 54 -15 25 117
62 206 57 48 -2 79 -10 116 -31z"/>
</g>
</svg>
