<?xml version="1.0" encoding="utf-8"?>
<!-- Generator: Adobe Illustrator 19.0.0, SVG Export Plug-In . SVG Version: 6.00 Build 0)  -->
<svg version="1.1" id="LOGOSTORE_WHITE" xmlns="http://www.w3.org/2000/svg" xmlns:xlink="http://www.w3.org/1999/xlink" x="0px"
	 y="0px" viewBox="-224 394.2 307 35.7" style="enable-background:new -224 394.2 307 35.7;" xml:space="preserve">
<style type="text/css">
	.st0{fill:none;}
	.st1{clip-path:url(#SVGID_2_);}
	.st2{clip-path:url(#SVGID_4_);}
	.st3{clip-path:url(#SVGID_6_);}
	.st4{fill:#C80502;}
	.st5{clip-path:url(#SVGID_8_);}
</style>
<rect id="Store_logo_color_background" x="-224" y="411.9" class="st0" width="146" height="18"/>
<g id="Group_29" transform="translate(0 0.562)">
	<g id="Group_3" transform="translate(0 0.152)">
		<path id="Clip_2-2" class="st0" d="M-224,393.5h38.2v34.7H-224V393.5z"/>
		<g>
			<defs>
				<rect id="SVGID_1_" x="-224" y="393.5" width="38.2" height="34.7"/>
			</defs>
			<clipPath id="SVGID_2_">
				<use xlink:href="#SVGID_1_"  style="overflow:visible;"/>
			</clipPath>
			<g id="Group_3-2" class="st1">
				<path id="Fill_1" d="M-193,428.2l-2.9-22.2l-5.5,18.3h-7.4l-5.3-18.1l-2.8,22h-7.1l4.7-32.4c0.2-1.5,1.2-2.3,3.1-2.3h3.1
					c0.7,0,1.4,0.1,2,0.5c0.5,0.4,0.9,1,1.1,1.7l5.1,19.8l5.3-19.8c0.1-0.7,0.5-1.3,1.1-1.7c0.6-0.4,1.3-0.6,2.1-0.5h3.1
					c1.9,0,2.9,0.8,3.1,2.3l4.6,32.4H-193z"/>
			</g>
		</g>
	</g>
	<path id="Fill_4" d="M-172,428.6c-2.8,0.2-5.6-0.7-7.8-2.6c-1.9-1.9-2.9-4.6-2.7-7.3v-7.9c-0.2-2.7,0.8-5.4,2.7-7.3
		c2.2-1.8,5-2.8,7.8-2.6c2.8-0.2,5.6,0.7,7.8,2.5c1.9,2,2.9,4.6,2.7,7.4v7.9c0.2,2.7-0.8,5.4-2.7,7.3
		C-166.3,427.9-169.1,428.8-172,428.6z M-172,406.5c-1,0-2,0.3-2.7,1c-0.7,1.1-1,2.5-0.8,3.8v6.9c-0.1,1.3,0.2,2.7,0.8,3.8
		c0.7,0.7,1.7,1,2.7,1c1,0.1,1.9-0.3,2.6-1c0.7-1.1,1.1-2.5,0.9-3.8v-6.9c0.2-1.3-0.2-2.7-0.9-3.8C-170,406.8-171,406.5-172,406.5z"
		/>
	<path id="Fill_6" d="M-154.3,427c-1.3-1.4-1.9-3.3-1.7-5.2v-15.7h-4.1v-4.9h4.1v-6.3h6.9v6.3h5.5l-1.1,4.9h-4.5v14.5
		c-0.1,0.6,0.1,1.3,0.5,1.8c0.4,0.4,1,0.6,1.5,0.5h3.4l-1.1,5.7h-4.1C-150.7,428.8-152.7,428.2-154.3,427"/>
	<path id="Fill_8" d="M-130.4,428.6c-2.8,0.2-5.6-0.7-7.8-2.6c-1.9-1.9-2.9-4.6-2.7-7.3v-7.9c-0.2-2.7,0.8-5.4,2.7-7.3
		c2.2-1.8,5-2.8,7.8-2.6c2.8-0.2,5.6,0.7,7.8,2.5c1.9,2,2.9,4.6,2.7,7.4v7.9c0.2,2.7-0.8,5.4-2.7,7.3
		C-124.8,427.9-127.6,428.8-130.4,428.6z M-130.4,406.5c-1,0-2,0.3-2.7,1c-0.7,1.1-1,2.5-0.8,3.8v6.9c-0.1,1.3,0.2,2.7,0.8,3.8
		c0.7,0.7,1.7,1,2.7,1c1,0.1,1.9-0.3,2.6-1c0.7-1.1,1.1-2.5,0.9-3.8v-6.9c0.2-1.3-0.2-2.7-0.9-3.8
		C-128.5,406.8-129.4,406.5-130.4,406.5z"/>
	<g id="Group_12" transform="translate(50.946 0)">
		<path id="Clip_11-2" class="st0" d="M-167.7,393.3h24.7v35.3h-24.7V393.3z"/>
		<g>
			<defs>
				<rect id="SVGID_3_" x="-167.7" y="393.3" width="24.7" height="35.3"/>
			</defs>
			<clipPath id="SVGID_4_">
				<use xlink:href="#SVGID_3_"  style="overflow:visible;"/>
			</clipPath>
			<g id="Group_12-2" transform="translate(0)" class="st2">
				<path id="Fill_10" d="M-142.9,410.3v6.6c0.2,3.2-0.9,6.4-3.1,8.8c-2.5,2.1-5.8,3.2-9.1,3c-1.9,0-3.7-0.3-5.5-0.8
					c-1.5-0.5-2.9-1.3-4-2.4c-2.2-2.4-3.3-5.6-3.1-8.8v-11.2c0-4.6,1.5-7.9,4.4-9.9c2.4-1.5,5.3-2.3,8.2-2.1
					c3.2-0.2,6.5,0.8,8.9,2.9c2.2,2.4,3.3,5.5,3,8.8v0.6h-7.3v-0.5c0.1-1.5-0.2-3-1.1-4.2c-0.9-0.9-2.2-1.4-3.6-1.2
					c-0.7,0-1.4,0.1-2.1,0.3c-0.6,0.2-1.1,0.5-1.6,0.9c-0.5,0.4-0.9,1-1.1,1.7c-0.3,0.9-0.4,1.8-0.4,2.7v11.3
					c-0.2,1.5,0.3,3,1.4,4.2c1,1,2.4,1.5,3.8,1.4c1.4,0.1,2.7-0.4,3.7-1.3c0.9-1.2,1.3-2.6,1.2-4.1v-0.6h-4.7l1.1-6L-142.9,410.3z"
					/>
			</g>
		</g>
	</g>
	<path id="Fill_13" d="M-87.8,415.7c-0.1-1.5,0.4-3,1.4-4.1c1.2-1,2.7-1.5,4.2-1.4h4.7c1.6,0.2,3.2-0.2,4.5-1.1
		c0.9-1.2,1.4-2.6,1.2-4.1c0.1-1.1-0.2-2.2-0.6-3.2c-0.4-0.7-1.1-1.2-1.9-1.5c-1.1-0.3-2.3-0.4-3.5-0.4h-2.8v5.8h-7.3v-12h10.3
		c3.6-0.3,7.1,0.7,10,2.7c2.3,2.3,3.4,5.4,3.2,8.6c0.1,2.3-0.4,4.5-1.3,6.6c-0.9,1.7-2.5,2.9-4.3,3.6c-2.5,0.8-5.1,1.2-7.8,1.1h-1.5
		c-0.4,0-0.8,0.1-1,0.5c-0.2,0.4-0.4,0.8-0.3,1.2v10.3h-7.3V415.7z"/>
	<path id="Fill_15" d="M-55,399.3h-1.9l0.6-4.9c0-0.4,0.4-0.8,0.8-0.8c0,0,0,0,0,0h0.7c0.4-0.1,0.8,0.2,0.9,0.6l0.3,1h0.2l0.3-1
		c0.1-0.4,0.5-0.7,0.9-0.6h0.7c0.4,0,0.8,0.3,0.8,0.7c0,0,0,0,0,0l0.6,4.9h-1.9l-0.2-2.7h-0.2l-0.5,1.7H-54l-0.5-1.7h-0.2
		C-54.8,396.6-55,399.3-55,399.3z M-58.3,399.3h-1.9v-3.9h-1.5v-1.8h4.9l-0.3,1.8h-1.2V399.3L-58.3,399.3z"/>
	<g id="Group_19" transform="translate(85.011 0)">
		<path id="Clip_18-2" class="st0" d="M-130,393.3h23.6v35.3H-130V393.3z"/>
		<g>
			<defs>
				<rect id="SVGID_5_" x="-130" y="393.3" width="23.6" height="35.3"/>
			</defs>
			<clipPath id="SVGID_6_">
				<use xlink:href="#SVGID_5_"  style="overflow:visible;"/>
			</clipPath>
			<g id="Group_19-2" transform="translate(0)" class="st3">
				<path id="Fill_17" class="st4" d="M-126.8,425.9c-2.1-2-3.3-4.8-3.1-7.7v-1.3h7.7v0.9c-0.1,1.2,0.3,2.5,1,3.5
					c0.8,0.8,2,1.2,3.1,1.1c1,0.1,2.1-0.3,2.8-1c0.7-0.6,1-1.5,1-2.5c0.1-0.9-0.2-1.7-0.8-2.4c-0.9-0.7-2-1.3-3.1-1.7l-2.9-1.1
					c-1.6-0.6-3.1-1.3-4.6-2.1c-1.3-0.8-2.3-1.8-3.1-3.1c-0.9-1.6-1.3-3.3-1.2-5.1c-0.1-1.9,0.5-3.8,1.5-5.4c1-1.5,2.4-2.7,4-3.5
					c1.8-0.8,3.8-1.2,5.7-1.2c3.1-0.2,6.1,0.8,8.4,2.9c2.1,2.2,3.2,5.2,3,8.2v0.5h-7.7v-0.9c0.1-1.2-0.2-2.4-0.9-3.3
					c-0.7-0.8-1.7-1.2-2.7-1.2c-0.9-0.1-1.8,0.3-2.4,0.9c-0.6,0.6-0.9,1.4-0.9,2.3c-0.1,1.2,0.5,2.3,1.4,3c1.4,0.9,2.9,1.6,4.4,2.1
					l1.1,0.4c2.4,0.8,4.5,2,6.4,3.6c1.7,1.6,2.6,3.9,2.4,6.3c0,1.8-0.4,3.6-1.3,5.2c-0.9,1.6-2.3,3-4,3.8c-2,1-4.2,1.5-6.5,1.4
					C-121.3,428.8-124.4,427.8-126.8,425.9"/>
			</g>
		</g>
	</g>
	<path id="Fill_20" class="st4" d="M3.7,399.9H-4v28.4h-7.3v-28.4h-8.6v-6.2H4.7L3.7,399.9z"/>
	<path id="Fill_22" class="st4" d="M19.4,428.6c-3.3,0.3-6.5-0.8-9-2.9c-2.4-2.4-3.7-5.7-3.5-9.2v-11.2c0-1.8,0.3-3.7,0.9-5.4
		c0.6-1.5,1.6-2.9,2.8-4c1.1-0.9,2.3-1.6,3.7-2c1.7-0.5,3.4-0.7,5.1-0.7c3.1-0.2,6.2,0.7,8.7,2.6c2.6,2.4,4,5.9,3.7,9.4v11.2
		c0,1.9-0.3,3.7-0.9,5.5c-0.6,1.5-1.6,2.9-2.8,3.9c-1.1,0.9-2.4,1.6-3.7,2C22.8,428.4,21.1,428.7,19.4,428.6z M19.4,399.8
		c-0.8,0-1.5,0.1-2.3,0.3c-0.6,0.2-1.2,0.6-1.6,1.1c-1,1.2-1.4,2.7-1.3,4.2v11.3c0,0.9,0.1,1.8,0.4,2.6c0.2,0.7,0.5,1.3,1.1,1.7
		c0.5,0.4,1,0.7,1.6,0.9c0.7,0.2,1.4,0.3,2.2,0.3c1.2,0.1,2.3-0.3,3.3-0.9c0.6-0.4,1.1-1.1,1.4-1.8c0.3-0.9,0.5-1.9,0.5-2.9v-11.3
		c0.1-1.5-0.4-3.1-1.4-4.2C22.2,400.2,20.8,399.7,19.4,399.8z"/>
	<path id="Fill_24" class="st4" d="M57.6,411.3c-1.1,1.7-2.9,3-4.8,3.5l6.3,13.6H51l-5.3-12.7h-1.9c-0.3,0-0.5,0.3-0.5,0.9v11.8H36
		V415c-0.1-1.5,0.4-3,1.5-4.1c1.2-1,2.7-1.5,4.2-1.4H46c1.5,0.1,3.1-0.2,4.4-1.1c1-1,1.4-2.4,1.3-3.7c0.2-1.4-0.3-2.8-1.4-3.7
		c-1.4-0.8-3-1.1-4.6-1h-2.5v5.1H36v-11.4h10c4.7,0,8,0.9,10.1,2.6c2.3,2.2,3.4,5.3,3.1,8.4C59.3,407,58.7,409.3,57.6,411.3"/>
	<g id="Group_28" transform="translate(136.232 0.152)">
		<path id="Clip_27-2" class="st0" d="M-73.4,393.5h20.2v34.7h-20.2V393.5z"/>
		<g>
			<defs>
				<rect id="SVGID_7_" x="-73.4" y="393.5" width="20.2" height="34.7"/>
			</defs>
			<clipPath id="SVGID_8_">
				<use xlink:href="#SVGID_7_"  style="overflow:visible;"/>
			</clipPath>
			<g id="Group_28-2" transform="translate(0)" class="st5">
				<path id="Fill_26" class="st4" d="M-65.5,421.3c0.6,0.5,1.3,0.7,2.1,0.7h10.2v6.2h-11.6c-2.3,0.2-4.7-0.6-6.4-2.1
					c-1.5-1.8-2.3-4.2-2.1-6.6v-26h20.2l-1.1,6.3h-11.8v7.8h11.8v6.2h-11.8v5.3C-66.2,419.8-66,420.6-65.5,421.3"/>
			</g>
		</g>
	</g>
</g>
</svg>
