<?xml version="1.0" encoding="utf-8"?>
<!-- Generator: Adobe Illustrator 19.0.0, SVG Export Plug-In . SVG Version: 6.00 Build 0)  -->
<svg version="1.1" id="LOGOSTORE_WHITE" xmlns="http://www.w3.org/2000/svg" xmlns:xlink="http://www.w3.org/1999/xlink" x="0px"
	 y="0px" viewBox="-144 403.2 307 35.7" style="enable-background:new -144 403.2 307 35.7;" xml:space="preserve">
<style type="text/css">
	.st0{fill:none;}
	.st1{clip-path:url(#SVGID_2_);}
	.st2{fill:#FFFFFF;}
	.st3{clip-path:url(#SVGID_4_);}
	.st4{clip-path:url(#SVGID_6_);}
	.st5{clip-path:url(#SVGID_8_);}
</style>
<rect id="Store_logo_color_background" x="-144" y="421.4" class="st0" width="146" height="18"/>
<g id="Group_29" transform="translate(0 0.562)">
	<g id="Group_3" transform="translate(0 0.152)">
		<path id="Clip_2-2" class="st0" d="M-144,403h38.2v34.7H-144V403z"/>
		<g>
			<g>
				<defs>
					<rect id="SVGID_1_" x="-144" y="403" width="38.2" height="34.7"/>
				</defs>
				<clipPath id="SVGID_2_">
					<use xlink:href="#SVGID_1_"  style="overflow:visible;"/>
				</clipPath>
				<g id="Group_3-2" class="st1">
					<path id="Fill_1" class="st2" d="M-113,437.7l-2.9-22.2l-5.5,18.3h-7.4l-5.3-18.1l-2.8,22h-7.1l4.7-32.4
						c0.2-1.5,1.2-2.3,3.1-2.3h3.1c0.7,0,1.4,0.1,2,0.5c0.5,0.4,0.9,1,1.1,1.7l5.1,19.8l5.3-19.8c0.1-0.7,0.5-1.3,1.1-1.7
						c0.6-0.4,1.3-0.6,2.1-0.5h3.1c1.9,0,2.9,0.8,3.1,2.3l4.6,32.4L-113,437.7L-113,437.7z"/>
				</g>
			</g>
		</g>
	</g>
	<path id="Fill_4" class="st2" d="M-92,438.1c-2.8,0.2-5.6-0.7-7.8-2.6c-1.9-1.9-2.9-4.6-2.7-7.3v-7.9c-0.2-2.7,0.8-5.4,2.7-7.3
		c2.2-1.8,5-2.8,7.8-2.6c2.8-0.2,5.6,0.7,7.8,2.5c1.9,2,2.9,4.6,2.7,7.4v7.9c0.2,2.7-0.8,5.4-2.7,7.3
		C-86.3,437.4-89.1,438.3-92,438.1z M-92,416c-1,0-2,0.3-2.7,1c-0.7,1.1-1,2.5-0.8,3.8v6.9c-0.1,1.3,0.2,2.7,0.8,3.8
		c0.7,0.7,1.7,1,2.7,1c1,0.1,1.9-0.3,2.6-1c0.7-1.1,1.1-2.5,0.9-3.8v-6.9c0.2-1.3-0.2-2.7-0.9-3.8C-90,416.3-91,416-92,416z"/>
	<path id="Fill_6" class="st2" d="M-74.3,436.5c-1.3-1.4-1.9-3.3-1.7-5.2v-15.7h-4.1v-4.9h4.1v-6.3h6.9v6.3h5.5l-1.1,4.9h-4.5v14.5
		c-0.1,0.6,0.1,1.3,0.5,1.8c0.4,0.4,1,0.6,1.5,0.5h3.4l-1.1,5.7H-69C-70.7,438.3-72.7,437.7-74.3,436.5"/>
	<path id="Fill_8" class="st2" d="M-50.4,438.1c-2.8,0.2-5.6-0.7-7.8-2.6c-1.9-1.9-2.9-4.6-2.7-7.3v-7.9c-0.2-2.7,0.8-5.4,2.7-7.3
		c2.2-1.8,5-2.8,7.8-2.6c2.8-0.2,5.6,0.7,7.8,2.5c1.9,2,2.9,4.6,2.7,7.4v7.9c0.2,2.7-0.8,5.4-2.7,7.3
		C-44.8,437.4-47.6,438.3-50.4,438.1z M-50.4,416c-1,0-2,0.3-2.7,1c-0.7,1.1-1,2.5-0.8,3.8v6.9c-0.1,1.3,0.2,2.7,0.8,3.8
		c0.7,0.7,1.7,1,2.7,1c1,0.1,1.9-0.3,2.6-1c0.7-1.1,1.1-2.5,0.9-3.8v-6.9c0.2-1.3-0.2-2.7-0.9-3.8C-48.5,416.3-49.4,416-50.4,416z"
		/>
	<g id="Group_12" transform="translate(50.946 0)">
		<path id="Clip_11-2" class="st0" d="M-87.7,402.8H-63v35.3h-24.7V402.8z"/>
		<g>
			<g>
				<defs>
					<rect id="SVGID_3_" x="-87.7" y="402.8" width="24.7" height="35.3"/>
				</defs>
				<clipPath id="SVGID_4_">
					<use xlink:href="#SVGID_3_"  style="overflow:visible;"/>
				</clipPath>
				<g id="Group_12-2" transform="translate(0)" class="st3">
					<path id="Fill_10" class="st2" d="M-62.9,419.8v6.6c0.2,3.2-0.9,6.4-3.1,8.8c-2.5,2.1-5.8,3.2-9.1,3c-1.9,0-3.7-0.3-5.5-0.8
						c-1.5-0.5-2.9-1.3-4-2.4c-2.2-2.4-3.3-5.6-3.1-8.8V415c0-4.6,1.5-7.9,4.4-9.9c2.4-1.5,5.3-2.3,8.2-2.1c3.2-0.2,6.5,0.8,8.9,2.9
						c2.2,2.4,3.3,5.5,3,8.8v0.6h-7.3v-0.5c0.1-1.5-0.2-3-1.1-4.2c-0.9-0.9-2.2-1.4-3.6-1.2c-0.7,0-1.4,0.1-2.1,0.3
						c-0.6,0.2-1.1,0.5-1.6,0.9s-0.9,1-1.1,1.7c-0.3,0.9-0.4,1.8-0.4,2.7v11.3c-0.2,1.5,0.3,3,1.4,4.2c1,1,2.4,1.5,3.8,1.4
						c1.4,0.1,2.7-0.4,3.7-1.3c0.9-1.2,1.3-2.6,1.2-4.1v-0.6H-75l1.1-6L-62.9,419.8z"/>
				</g>
			</g>
		</g>
	</g>
	<path id="Fill_13" class="st2" d="M-7.8,425.2c-0.1-1.5,0.4-3,1.4-4.1c1.2-1,2.7-1.5,4.2-1.4h4.7c1.6,0.2,3.2-0.2,4.5-1.1
		c0.9-1.2,1.4-2.6,1.2-4.1c0.1-1.1-0.2-2.2-0.6-3.2c-0.4-0.7-1.1-1.2-1.9-1.5c-1.1-0.3-2.3-0.4-3.5-0.4h-2.8v5.8h-7.3v-12H2.4
		c3.6-0.3,7.1,0.7,10,2.7c2.3,2.3,3.4,5.4,3.2,8.6c0.1,2.3-0.4,4.5-1.3,6.6c-0.9,1.7-2.5,2.9-4.3,3.6c-2.5,0.8-5.1,1.2-7.8,1.1H0.7
		c-0.4,0-0.8,0.1-1,0.5s-0.4,0.8-0.3,1.2v10.3h-7.3v-12.6H-7.8z"/>
	<path id="Fill_15" class="st2" d="M25,408.8h-1.9l0.6-4.9c0-0.4,0.4-0.8,0.8-0.8l0,0h0.7c0.4-0.1,0.8,0.2,0.9,0.6l0.3,1h0.2l0.3-1
		c0.1-0.4,0.5-0.7,0.9-0.6h0.7c0.4,0,0.8,0.3,0.8,0.7l0,0l0.6,4.9H28l-0.2-2.7h-0.2l-0.5,1.7H26l-0.5-1.7h-0.2
		C25.2,406.1,25,408.8,25,408.8z M21.7,408.8h-1.9v-3.9h-1.5v-1.8h4.9l-0.3,1.8h-1.2V408.8L21.7,408.8z"/>
	<g id="Group_19" transform="translate(85.011 0)">
		<path id="Clip_18-2" class="st0" d="M-50,402.8h23.6v35.3H-50V402.8z"/>
		<g>
			<g>
				<defs>
					<rect id="SVGID_5_" x="-50" y="402.8" width="23.6" height="35.3"/>
				</defs>
				<clipPath id="SVGID_6_">
					<use xlink:href="#SVGID_5_"  style="overflow:visible;"/>
				</clipPath>
				<g id="Group_19-2" transform="translate(0)" class="st4">
					<path id="Fill_17" class="st2" d="M-46.8,435.4c-2.1-2-3.3-4.8-3.1-7.7v-1.3h7.7v0.9c-0.1,1.2,0.3,2.5,1,3.5
						c0.8,0.8,2,1.2,3.1,1.1c1,0.1,2.1-0.3,2.8-1c0.7-0.6,1-1.5,1-2.5c0.1-0.9-0.2-1.7-0.8-2.4c-0.9-0.7-2-1.3-3.1-1.7l-2.9-1.1
						c-1.6-0.6-3.1-1.3-4.6-2.1c-1.3-0.8-2.3-1.8-3.1-3.1c-0.9-1.6-1.3-3.3-1.2-5.1c-0.1-1.9,0.5-3.8,1.5-5.4c1-1.5,2.4-2.7,4-3.5
						c1.8-0.8,3.8-1.2,5.7-1.2c3.1-0.2,6.1,0.8,8.4,2.9c2.1,2.2,3.2,5.2,3,8.2v0.5h-7.7v-0.9c0.1-1.2-0.2-2.4-0.9-3.3
						c-0.7-0.8-1.7-1.2-2.7-1.2c-0.9-0.1-1.8,0.3-2.4,0.9s-0.9,1.4-0.9,2.3c-0.1,1.2,0.5,2.3,1.4,3c1.4,0.9,2.9,1.6,4.4,2.1l1.1,0.4
						c2.4,0.8,4.5,2,6.4,3.6c1.7,1.6,2.6,3.9,2.4,6.3c0,1.8-0.4,3.6-1.3,5.2s-2.3,3-4,3.8c-2,1-4.2,1.5-6.5,1.4
						C-41.3,438.3-44.4,437.3-46.8,435.4"/>
				</g>
			</g>
		</g>
	</g>
	<path id="Fill_20" class="st2" d="M83.7,409.4H76v28.4h-7.3v-28.4h-8.6v-6.2h24.6L83.7,409.4z"/>
	<path id="Fill_22" class="st2" d="M99.4,438.1c-3.3,0.3-6.5-0.8-9-2.9c-2.4-2.4-3.7-5.7-3.5-9.2v-11.2c0-1.8,0.3-3.7,0.9-5.4
		c0.6-1.5,1.6-2.9,2.8-4c1.1-0.9,2.3-1.6,3.7-2c1.7-0.5,3.4-0.7,5.1-0.7c3.1-0.2,6.2,0.7,8.7,2.6c2.6,2.4,4,5.9,3.7,9.4v11.2
		c0,1.9-0.3,3.7-0.9,5.5c-0.6,1.5-1.6,2.9-2.8,3.9c-1.1,0.9-2.4,1.6-3.7,2C102.8,437.9,101.1,438.2,99.4,438.1z M99.4,409.3
		c-0.8,0-1.5,0.1-2.3,0.3c-0.6,0.2-1.2,0.6-1.6,1.1c-1,1.2-1.4,2.7-1.3,4.2v11.3c0,0.9,0.1,1.8,0.4,2.6c0.2,0.7,0.5,1.3,1.1,1.7
		c0.5,0.4,1,0.7,1.6,0.9c0.7,0.2,1.4,0.3,2.2,0.3c1.2,0.1,2.3-0.3,3.3-0.9c0.6-0.4,1.1-1.1,1.4-1.8c0.3-0.9,0.5-1.9,0.5-2.9v-11.3
		c0.1-1.5-0.4-3.1-1.4-4.2C102.2,409.7,100.8,409.2,99.4,409.3z"/>
	<path id="Fill_24" class="st2" d="M137.6,420.8c-1.1,1.7-2.9,3-4.8,3.5l6.3,13.6H131l-5.3-12.7h-1.9c-0.3,0-0.5,0.3-0.5,0.9v11.8
		H116v-13.4c-0.1-1.5,0.4-3,1.5-4.1c1.2-1,2.7-1.5,4.2-1.4h4.3c1.5,0.1,3.1-0.2,4.4-1.1c1-1,1.4-2.4,1.3-3.7
		c0.2-1.4-0.3-2.8-1.4-3.7c-1.4-0.8-3-1.1-4.6-1h-2.5v5.1H116v-11.4h10c4.7,0,8,0.9,10.1,2.6c2.3,2.2,3.4,5.3,3.1,8.4
		C139.3,416.5,138.7,418.8,137.6,420.8"/>
	<g id="Group_28" transform="translate(136.232 0.152)">
		<path id="Clip_27-2" class="st0" d="M6.6,403h20.2v34.7H6.6V403z"/>
		<g>
			<g>
				<defs>
					<rect id="SVGID_7_" x="6.6" y="403" width="20.2" height="34.7"/>
				</defs>
				<clipPath id="SVGID_8_">
					<use xlink:href="#SVGID_7_"  style="overflow:visible;"/>
				</clipPath>
				<g id="Group_28-2" transform="translate(0)" class="st5">
					<path id="Fill_26" class="st2" d="M14.5,430.8c0.6,0.5,1.3,0.7,2.1,0.7h10.2v6.2H15.2c-2.3,0.2-4.7-0.6-6.4-2.1
						c-1.5-1.8-2.3-4.2-2.1-6.6v-26h20.2l-1.1,6.3H14v7.8h11.8v6.2H14v5.3C13.8,429.3,14,430.1,14.5,430.8"/>
				</g>
			</g>
		</g>
	</g>
</g>
</svg>
