<?xml version="1.0" standalone="no"?>
<!DOCTYPE svg PUBLIC "-//W3C//DTD SVG 20010904//EN"
 "http://www.w3.org/TR/2001/REC-SVG-20010904/DTD/svg10.dtd">
<svg version="1.0" xmlns="http://www.w3.org/2000/svg"
 width="48.000000pt" height="50.000000pt" viewBox="0 0 48.000000 50.000000"
 preserveAspectRatio="xMidYMid meet">
<metadata>
Created by potrace 1.16, written by Peter Selinger 2001-2019
</metadata>
<g transform="translate(0.000000,50.000000) scale(0.100000,-0.100000)"
fill="#000000" stroke="none">
<path d="M157 487 c-107 -34 -174 -152 -146 -260 32 -131 189 -201 308 -139
l44 23 51 -50 c29 -28 56 -51 61 -51 5 0 -15 25 -45 55 l-54 54 26 48 c33 62
41 111 27 166 -28 114 -161 190 -272 154z m149 -28 c161 -77 145 -309 -25
-367 -104 -36 -213 20 -249 127 -56 163 118 316 274 240z"/>
</g>
</svg>
